<?xml version="1.0" encoding="UTF-8" standalone="no"?>
<!-- Generator: Adobe Illustrator 19.2.0, SVG Export Plug-In . SVG Version: 6.00 Build 0)  -->

<svg
   version="1.1"
   id="svg2"
   x="0px"
   y="0px"
   viewBox="0 0 508.03926 164"
   xml:space="preserve"
   width="508.03928"
   height="164"
   xmlns="http://www.w3.org/2000/svg"
   xmlns:svg="http://www.w3.org/2000/svg"><defs
   id="defs43"><linearGradient
     id="vlpb"
     x1="26.65"
     x2="135.7"
     y1="20.6"
     y2="114.4"
     gradientTransform="matrix(0.60881827,0,0,0.61477116,248.47502,7.739224)"
     gradientUnits="userSpaceOnUse"><stop
       style="stop-color:#5a9fd4"
       offset="0"
       id="stop3" /><stop
       style="stop-color:#306998"
       offset="1"
       id="stop4" /></linearGradient><linearGradient
     id="vlpc"
     x1="151"
     x2="112"
     y1="192.39999"
     y2="137.3"
     gradientTransform="matrix(0.60881827,0,0,0.61477116,248.47502,7.739224)"
     gradientUnits="userSpaceOnUse"><stop
       style="stop-color:#ffd43b"
       offset="0"
       id="stop1" /><stop
       style="stop-color:#ffe873"
       offset="1"
       id="stop2" /></linearGradient></defs>
<style
   type="text/css"
   id="style2">
	.st0{fill:#FFFFFF;}
	.st1{fill-rule:evenodd;clip-rule:evenodd;fill:#FFFFFF;}
</style>
<polyline
   class="st0"
   points="0,110.9 0,35.7 18.8,35.7 18.8,95.1 48.2,95.1 48.2,110.9 0,110.9   "
   id="polyline4"
   style="fill:#000000"
   transform="translate(0,-0.9)" /><path
   class="st0"
   d="M 143.8,48.7 V 69 H 161 c 6.7,0 10.1,-3.4 10.1,-10.1 0,-6.8 -3.3,-10.1 -10.1,-10.1 H 143.8 Z M 125,110 V 34.8 h 37.6 c 18.2,0 27.3,8.2 27.3,24.7 0,4.9 -1.4,9.1 -4.2,12.7 -2.8,3.6 -6.6,6.2 -11.3,7.6 l 17.2,30.2 h -21 L 155.8,82.9 h -12 V 110 H 125"
   id="path6"
   style="fill:#000000" /><path
   class="st0"
   d="m 232.4,86.6 v -3.9 l -11.1,3.2 c -5.3,1.5 -7.9,3.9 -7.9,7.3 0,4.2 2.6,6.3 7.7,6.3 3.4,0 6.1,-1.1 8.2,-3.3 2,-2.3 3.1,-5.5 3.1,-9.6 m 15.8,-18 v 29.7 c 0,5.3 0.5,9.2 1.5,11.7 h -15.2 c -0.6,-1.8 -0.9,-3.7 -1,-5.8 h -0.2 c -1.3,2.1 -3.8,3.9 -7.3,5.3 -3.2,1.3 -6.4,2 -9.6,2 -5.6,0 -10,-1.4 -13.4,-4.3 -3.6,-3 -5.4,-7.2 -5.4,-12.4 0,-6.4 2.6,-11.3 7.7,-14.6 4.4,-2.8 11.4,-4.9 21.1,-6.2 l 6,-0.8 v -4.7 c 0,-4 -2.6,-6 -7.8,-6 -2.7,0 -4.7,0.6 -6,1.7 -1.3,1.1 -2.2,3.1 -2.6,5.8 h -16 c 0.3,-11.8 8.1,-17.6 23.2,-17.6 8.2,0 14.3,1.1 18.3,3.4 4.5,2.5 6.7,6.8 6.7,12.8"
   id="path8"
   style="fill:#000000" /><path
   class="st0"
   d="m 84,64.9 c -4.5,0 -7.9,1.6 -10.2,4.9 -2.1,3 -3.2,7 -3.2,12.1 0,5.1 1.1,9.1 3.2,12.1 2.3,3.3 5.7,4.9 10.2,4.9 9,0 13.4,-5.9 13.4,-17.7 0,-4.8 -1.1,-8.7 -3.2,-11.6 C 91.9,66.5 88.5,64.9 84,64.9 m 0,-12.6 c 9,0 16.2,2.6 21.7,7.8 5.5,5.2 8.2,12.5 8.2,21.8 0,9.3 -2.7,16.6 -8.2,21.8 -5.5,5.2 -12.7,7.8 -21.7,7.8 -9,0 -16.2,-2.6 -21.7,-7.8 -5.5,-5.2 -8.2,-12.5 -8.2,-21.8 0,-9.3 2.7,-16.6 8.2,-21.8 5.6,-5.2 12.8,-7.8 21.7,-7.8"
   id="path10"
   style="fill:#000000" /><path
   class="st0"
   d="m 83.5,41.1 c 8.2,0 15.9,2.4 22.3,6.6 l 3.2,-4.6 c -7.4,-4.8 -16.1,-7.6 -25.5,-7.6 -9,0 -17.4,2.6 -24.6,7 l 3.2,4.6 c 6.3,-3.9 13.6,-6 21.4,-6"
   id="path12"
   style="fill:#009fe3" /><path
   class="st0"
   d="m 48.9,28.1 4.3,6.1 c 8.8,-5.6 19.2,-8.8 30.3,-8.8 11.6,0 22.3,3.5 31.3,9.4 l 4.3,-6.1 C 108.9,21.9 96.6,17.9 83.5,17.9 70.8,17.9 58.9,21.7 48.9,28.1"
   id="path14"
   style="fill:#009fe3" /><path
   class="st0"
   d="m 83.5,9.4 c 15,0 28.9,4.5 40.6,12.3 L 129.5,14 C 116.4,5.1 100.5,0 83.5,0 67,0 51.5,4.9 38.6,13.3 L 44,21 C 55.4,13.7 68.9,9.4 83.5,9.4"
   id="path16"
   style="fill:#009fe3" /><path
   class="st0"
   d="m 84.6,122.9 c -8.2,0 -15.9,-2.4 -22.3,-6.6 l -3.2,4.6 c 7.4,4.8 16.1,7.6 25.6,7.6 9,0 17.4,-2.6 24.6,-7 l -3.2,-4.6 c -6.4,3.9 -13.7,6 -21.5,6"
   id="path18"
   style="fill:#009fe3" /><path
   class="st0"
   d="m 119.2,135.9 -4.3,-6.1 c -8.8,5.6 -19.2,8.8 -30.3,8.8 -11.6,0 -22.3,-3.5 -31.3,-9.4 l -4.3,6.1 c 10.2,6.8 22.4,10.8 35.6,10.8 12.7,0 24.6,-3.8 34.6,-10.2"
   id="path20"
   style="fill:#009fe3" /><path
   class="st0"
   d="m 84.6,154.6 c -15,0 -28.9,-4.5 -40.6,-12.3 l -5.4,7.7 c 13.1,8.8 29,14 46,14 16.5,0 32,-4.9 44.9,-13.3 l -5.4,-7.7 c -11.4,7.3 -25,11.6 -39.5,11.6"
   id="path22"
   style="fill:#009fe3" /><path
   d="m 439.5733,81.827607 c 0,-15.405582 -4.39313,-23.319987 -13.18362,-23.753798 -3.49588,-0.16506 -6.91029,0.391911 -10.23053,1.681282 -2.65048,0.948776 -4.4344,1.887607 -5.37291,2.835643 V 99.36944 c 5.6205,3.52763 10.6125,5.16659 14.96119,4.90947 9.20949,-0.6085 13.81847,-8.085811 13.81847,-22.452361 z m 10.8347,0.639394 c 0,7.827643 -1.83576,14.326344 -5.52739,19.489759 -4.11485,5.84798 -9.81789,8.85926 -17.10909,9.02432 -5.49669,0.17532 -11.16269,-1.54691 -16.9821,-5.15706 v 33.42461 l -9.4264,-3.36257 V 61.693803 c 1.54691,-1.897129 3.53714,-3.527624 5.95062,-4.90947 5.60992,-3.269454 12.43239,-4.950736 20.4526,-5.033266 l 0.13406,0.134058 c 7.33246,-0.09282 12.98258,2.918173 16.95037,9.024327 3.7022,5.600394 5.55912,12.781554 5.55912,21.553 z"
   style="fill:#000000;fill-opacity:1;stroke-width:1.05807"
   id="path6-3" /><path
   d="m 508.0308,104.40694 c 0,10.49929 -1.05194,17.76509 -3.15624,21.81752 -2.11404,4.0429 -6.13684,7.27109 -12.07264,9.67398 -4.81636,1.89714 -10.02422,2.92876 -15.61721,3.1044 l -1.55748,-5.94004 c 5.68292,-0.77345 9.68457,-1.5469 12.00916,-2.32036 4.56877,-1.5469 7.70385,-3.91911 9.42639,-7.09545 1.38185,-2.58912 2.06219,-7.52821 2.06219,-14.8448 v -2.45474 c -6.4458,2.92876 -13.20478,4.38361 -20.26214,4.38361 -4.64072,0 -8.73548,-1.4538 -12.2631,-4.38361 -3.96037,-3.18692 -5.94004,-7.22983 -5.94004,-12.125547 V 54.988461 l 9.4264,-3.228189 v 39.487381 c 0,4.218547 1.36175,7.466839 4.08417,9.745937 2.72243,2.27909 6.25005,3.37208 10.57123,3.28956 4.32118,-0.0928 8.95133,-1.76382 13.87138,-5.03327 V 53.181267 h 9.4264 v 51.221443 z"
   style="fill:#000000;fill-opacity:1;stroke-width:1.05807"
   id="path7" /><path
   d="m 324.14167,20.405892 c -4.96146,0.02305 -9.69888,0.446142 -13.86482,1.184084 -12.2846,2.170099 -14.51423,6.71053 -14.51423,15.08787 v 11.061552 h 29.01764 v 3.686462 h -29.01764 -10.88837 c -8.43362,0 -15.82387,5.069698 -18.12926,14.70905 -2.66473,11.050728 -2.7827,17.956082 0,29.493864 2.06295,8.591646 6.98978,14.709046 15.4234,14.709046 h 9.97812 V 97.079114 c 0,-9.57874 8.28751,-18.031843 18.12926,-18.031843 h 28.98516 c 8.06887,0 14.51423,-6.643426 14.51423,-14.741521 V 36.673518 c 0,-7.86431 -6.63477,-13.767412 -14.51423,-15.087872 -4.98527,-0.829833 -10.15779,-1.206813 -15.12034,-1.184084 z m -15.69398,8.895782 c 2.99809,0 5.44527,2.488309 5.44527,5.547011 0,3.04788 -2.44826,5.513459 -5.44527,5.513459 -3.00783,-2e-6 -5.44527,-2.464497 -5.44527,-5.513459 0,-3.058703 2.43744,-5.547011 5.44527,-5.547011 z"
   style="fill:url(#vlpb);stroke-width:1.08234"
   id="path12-6" /><path
   d="m 357.39127,51.417201 v 12.890713 c 0,9.991114 -8.47042,18.399842 -18.12926,18.399842 h -28.98516 c -7.94007,0 -14.51423,6.794954 -14.51423,14.74152 v 27.632234 c 0,7.86431 6.83933,12.49024 14.51423,14.74152 9.18585,2.70153 17.99938,3.18967 28.98516,0 7.30582,-2.1149 14.51423,-6.37284 14.51423,-14.74152 v -11.06155 h -28.98516 v -3.68647 h 28.98516 14.51423 c 8.43362,0 11.58108,-5.88253 14.51423,-14.709046 3.02948,-9.090604 2.90068,-17.837022 0,-29.493863 -2.0846,-8.39574 -6.06546,-14.70905 -14.51423,-14.70905 h -10.88838 z m -16.30009,69.984339 c 3.00783,0 5.44527,2.4645 5.44527,5.51346 -10e-6,3.0587 -2.43744,5.54701 -5.44527,5.54701 -2.9981,0 -5.44528,-2.48831 -5.44528,-5.54701 0,-3.04788 2.44827,-5.51346 5.44528,-5.51346 z"
   style="fill:url(#vlpc);stroke-width:1.08234"
   id="path13" />
</svg>
